<?xml version="1.0" encoding="UTF-8"?>
<svg xmlns="http://www.w3.org/2000/svg" xmlns:xlink="http://www.w3.org/1999/xlink" width="42px" height="px" viewBox="0 0 42 42" version="1.1">
<defs>
<linearGradient id="linear0" gradientUnits="userSpaceOnUse" x1="32.526" y1="16.627" x2="32.526" y2="56.834" gradientTransform="matrix(0.65625,0,0,0.65625,0,0)">
<stop offset="0" style="stop-color:rgb(42.745098%,78.039216%,100%);stop-opacity:1;"/>
<stop offset="1" style="stop-color:rgb(90.196078%,67.058824%,100%);stop-opacity:1;"/>
</linearGradient>
<linearGradient id="linear1" gradientUnits="userSpaceOnUse" x1="32" y1="58" x2="32" y2="6" gradientTransform="matrix(1,0,0,-1,0,64)">
<stop offset="0" style="stop-color:rgb(10.196078%,42.745098%,100%);stop-opacity:1;"/>
<stop offset="1" style="stop-color:rgb(78.431373%,13.333333%,100%);stop-opacity:1;"/>
</linearGradient>
</defs>
<g id="surface1">
<path style=" stroke:none;fill-rule:nonzero;fill:url(#linear0);" d="M 23.308594 25.523438 L 27.726562 25.523438 L 28.417969 21.035156 L 23.308594 21.035156 L 23.308594 18.585938 C 23.308594 16.722656 23.917969 15.070312 25.660156 15.070312 L 28.460938 15.070312 L 28.460938 11.152344 C 27.96875 11.085938 26.929688 10.941406 24.964844 10.941406 C 20.855469 10.941406 18.449219 13.109375 18.449219 18.050781 L 18.449219 21.035156 L 14.226562 21.035156 L 14.226562 25.523438 L 18.449219 25.523438 L 18.449219 37.195312 C 19.285156 37.320312 20.132812 37.40625 21 37.40625 C 21.785156 37.40625 22.550781 37.335938 23.308594 37.230469 Z M 23.308594 25.523438 "/>
<path style="fill:none;stroke-width:2;stroke-linecap:butt;stroke-linejoin:miter;stroke:url(#linear1);stroke-miterlimit:10;" d="M 32 7 C 18.190476 7 7 18.190476 7 32 C 7 45.809524 18.190476 57 32 57 C 45.809524 57 57 45.809524 57 32 C 57 18.190476 45.809524 7 32 7 Z M 32 7 " transform="matrix(0.65625,0,0,0.65625,0,0)"/>
</g>
</svg>
