<svg version="1.1" id="Layer_1" xmlns="http://www.w3.org/2000/svg" xmlns:xlink="http://www.w3.org/1999/xlink" x="0px" y="0px"
	 width="100%" viewBox="0 0 99 116" enable-background="new 0 0 99 116" xml:space="preserve">
<path fill="#FCFEFE" opacity="1.000000" stroke="none" 
	d="
M54.000000,117.000000 
	C36.000000,117.000000 18.500000,117.000000 1.000000,117.000000 
	C1.000000,78.333336 1.000000,39.666668 1.000000,1.000000 
	C34.000000,1.000000 67.000000,1.000000 100.000000,1.000000 
	C100.000000,39.666668 100.000000,78.333336 100.000000,117.000000 
	C84.833336,117.000000 69.666664,117.000000 54.000000,117.000000 
M92.269157,82.498955 
	C92.268074,61.677124 92.306206,40.855179 92.245056,20.033524 
	C92.223061,12.543436 87.929863,8.072549 80.552345,8.037764 
	C60.230671,7.941945 39.907913,7.940236 19.586294,8.042245 
	C12.781775,8.076401 8.085815,12.572750 8.055387,19.258986 
	C7.937892,45.077549 7.942881,70.897232 8.052845,96.715866 
	C8.080487,103.206169 12.640710,107.892609 19.061584,107.935928 
	C39.882332,108.076424 60.705574,108.084740 81.525879,107.909523 
	C87.794205,107.856781 92.025169,103.261253 92.230774,96.989708 
	C92.378075,92.496910 92.265793,87.995605 92.269157,82.498955 
z"/>
<path fill="#129A9F" opacity="1.000000" stroke="none" 
	d="
M92.269241,82.998520 
	C92.265793,87.995605 92.378075,92.496910 92.230774,96.989708 
	C92.025169,103.261253 87.794205,107.856781 81.525879,107.909523 
	C60.705574,108.084740 39.882332,108.076424 19.061584,107.935928 
	C12.640710,107.892609 8.080487,103.206169 8.052845,96.715866 
	C7.942881,70.897232 7.937892,45.077549 8.055387,19.258986 
	C8.085815,12.572750 12.781775,8.076401 19.586294,8.042245 
	C39.907913,7.940236 60.230671,7.941945 80.552345,8.037764 
	C87.929863,8.072549 92.223061,12.543436 92.245056,20.033524 
	C92.306206,40.855179 92.268074,61.677124 92.269241,82.998520 
M39.504395,29.805840 
	C32.647255,33.944057 28.411020,39.817551 28.032894,47.966469 
	C27.482868,59.819992 35.880821,68.437965 48.392967,69.036346 
	C51.328674,69.176750 54.065025,69.923553 53.851158,73.365265 
	C53.639721,76.767761 50.906418,77.955414 47.757187,77.862885 
	C46.629017,77.829735 45.218208,77.659035 44.447384,76.975166 
	C41.681271,74.521072 39.170780,71.781540 36.484039,69.233887 
	C35.504612,68.305168 33.615524,66.731850 33.320286,66.962372 
	C32.021744,67.976303 30.229227,69.612572 30.326876,70.892769 
	C30.517496,73.391907 31.319748,76.209763 32.816517,78.173119 
	C36.776657,83.367744 42.279327,86.633293 48.714157,87.703491 
	C56.425686,88.986031 63.392128,87.084579 68.306923,80.638115 
	C72.348793,75.336601 73.105377,69.326576 69.961578,63.276363 
	C66.468369,56.553711 60.013027,54.436699 53.168236,52.993713 
	C51.168102,52.572056 49.261726,51.705669 47.312374,51.043125 
	C47.523224,50.381401 47.734074,49.719677 47.944927,49.057953 
	C49.827881,49.473095 52.116138,50.781734 53.521584,50.144203 
	C58.786770,47.755821 63.878811,44.918556 68.808235,41.880394 
	C72.185661,39.798779 72.276123,37.243172 69.192360,34.277580 
	C61.266724,26.655643 51.238453,24.844973 39.504395,29.805840 
z"/>
<path fill="#FBFDFD" opacity="1.000000" stroke="none" 
	d="
M39.825340,29.605938 
	C51.238453,24.844973 61.266724,26.655643 69.192360,34.277580 
	C72.276123,37.243172 72.185661,39.798779 68.808235,41.880394 
	C63.878811,44.918556 58.786770,47.755821 53.521584,50.144203 
	C52.116138,50.781734 49.827881,49.473095 47.944927,49.057953 
	C47.734074,49.719677 47.523224,50.381401 47.312374,51.043125 
	C49.261726,51.705669 51.168102,52.572056 53.168236,52.993713 
	C60.013027,54.436699 66.468369,56.553711 69.961578,63.276363 
	C73.105377,69.326576 72.348793,75.336601 68.306923,80.638115 
	C63.392128,87.084579 56.425686,88.986031 48.714157,87.703491 
	C42.279327,86.633293 36.776657,83.367744 32.816517,78.173119 
	C31.319748,76.209763 30.517496,73.391907 30.326876,70.892769 
	C30.229227,69.612572 32.021744,67.976303 33.320286,66.962372 
	C33.615524,66.731850 35.504612,68.305168 36.484039,69.233887 
	C39.170780,71.781540 41.681271,74.521072 44.447384,76.975166 
	C45.218208,77.659035 46.629017,77.829735 47.757187,77.862885 
	C50.906418,77.955414 53.639721,76.767761 53.851158,73.365265 
	C54.065025,69.923553 51.328674,69.176750 48.392967,69.036346 
	C35.880821,68.437965 27.482868,59.819992 28.032894,47.966469 
	C28.411020,39.817551 32.647255,33.944057 39.825340,29.605938 
z"/>
</svg>