<?xml version="1.0" encoding="UTF-8"?>
<svg xmlns="http://www.w3.org/2000/svg" xmlns:xlink="http://www.w3.org/1999/xlink" width="42px" height="px" viewBox="0 0 42 42" version="1.1">
<defs>
<linearGradient id="linear0" gradientUnits="userSpaceOnUse" x1="19" y1="24.858" x2="19" y2="49.041" spreadMethod="reflect" gradientTransform="matrix(0.65625,0,0,0.65625,0,0)">
<stop offset="0" style="stop-color:rgb(42.745098%,78.039216%,100%);stop-opacity:1;"/>
<stop offset="1" style="stop-color:rgb(90.196078%,67.058824%,100%);stop-opacity:1;"/>
</linearGradient>
<linearGradient id="linear1" gradientUnits="userSpaceOnUse" x1="19.382" y1="15.423" x2="19.382" y2="23.341" spreadMethod="reflect" gradientTransform="matrix(0.65625,0,0,0.65625,0,0)">
<stop offset="0" style="stop-color:rgb(42.745098%,78.039216%,100%);stop-opacity:1;"/>
<stop offset="1" style="stop-color:rgb(90.196078%,67.058824%,100%);stop-opacity:1;"/>
</linearGradient>
<linearGradient id="linear2" gradientUnits="userSpaceOnUse" x1="37.386" y1="14.125" x2="37.386" y2="49.525" spreadMethod="reflect" gradientTransform="matrix(0.65625,0,0,0.65625,0,0)">
<stop offset="0" style="stop-color:rgb(42.745098%,78.039216%,100%);stop-opacity:1;"/>
<stop offset="1" style="stop-color:rgb(90.196078%,67.058824%,100%);stop-opacity:1;"/>
</linearGradient>
<linearGradient id="linear3" gradientUnits="userSpaceOnUse" x1="32" y1="6.5" x2="32" y2="57.5" spreadMethod="reflect" gradientTransform="matrix(0.65625,0,0,0.65625,0,0)">
<stop offset="0" style="stop-color:rgb(10.196078%,42.745098%,100%);stop-opacity:1;"/>
<stop offset="1" style="stop-color:rgb(78.431373%,13.333333%,100%);stop-opacity:1;"/>
</linearGradient>
</defs>
<g id="surface1">
<path style=" stroke:none;fill-rule:evenodd;fill:url(#linear0);" d="M 14.4375 31.5 L 14.4375 17.0625 L 10.5 17.0625 L 10.5 31.5 Z M 14.4375 31.5 "/>
<path style=" stroke:none;fill-rule:evenodd;fill:url(#linear1);" d="M 12.703125 15.09375 C 14.351562 15.09375 15.378906 14.125 15.378906 12.761719 C 15.347656 11.367188 14.351562 10.367188 12.734375 10.367188 C 11.117188 10.367188 10.058594 11.335938 10.058594 12.730469 C 10.058594 14.09375 11.085938 15.09375 12.671875 15.09375 Z M 12.703125 15.09375 "/>
<path style=" stroke:none;fill-rule:evenodd;fill:url(#linear2);" d="M 17.683594 31.5 L 22.3125 31.5 L 22.3125 23.566406 C 22.3125 23.140625 22.390625 22.714844 22.519531 22.414062 C 22.859375 21.5625 23.75 20.683594 25.054688 20.683594 C 26.765625 20.683594 27.5625 21.988281 27.5625 23.898438 L 27.5625 31.5 L 31.5 31.5 L 31.5 23.355469 C 31.5 18.984375 29.476562 17.121094 26.363281 17.121094 C 23.816406 17.121094 23.003906 18.375 22.378906 19.6875 L 22.3125 19.6875 L 22.3125 17.0625 L 17.683594 17.0625 C 17.746094 18.375 17.570312 31.5 17.570312 31.5 Z M 17.683594 31.5 "/>
<path style=" stroke:none;fill-rule:evenodd;fill:url(#linear3);" d="M 32.8125 37.40625 L 9.1875 37.40625 C 6.65625 37.40625 4.59375 35.34375 4.59375 32.8125 L 4.59375 9.1875 C 4.59375 6.65625 6.65625 4.59375 9.1875 4.59375 L 32.8125 4.59375 C 35.34375 4.59375 37.40625 6.65625 37.40625 9.1875 L 37.40625 32.8125 C 37.40625 35.34375 35.34375 37.40625 32.8125 37.40625 Z M 9.1875 5.90625 C 7.378906 5.90625 5.90625 7.378906 5.90625 9.1875 L 5.90625 32.8125 C 5.90625 34.621094 7.378906 36.09375 9.1875 36.09375 L 32.8125 36.09375 C 34.621094 36.09375 36.09375 34.621094 36.09375 32.8125 L 36.09375 9.1875 C 36.09375 7.378906 34.621094 5.90625 32.8125 5.90625 Z M 9.1875 5.90625 "/>
</g>
</svg>
