<?xml version="1.0" encoding="UTF-8"?>
<svg xmlns="http://www.w3.org/2000/svg" xmlns:xlink="http://www.w3.org/1999/xlink" width="42px" height="px" viewBox="0 0 42 42" version="1.1">
<defs>
<linearGradient id="linear0" gradientUnits="userSpaceOnUse" x1="32" y1="9.936" x2="32" y2="52.195" gradientTransform="matrix(0.65625,0,0,0.65625,0,0)">
<stop offset="0" style="stop-color:rgb(10.196078%,42.745098%,100%);stop-opacity:1;"/>
<stop offset="1" style="stop-color:rgb(78.431373%,13.333333%,100%);stop-opacity:1;"/>
</linearGradient>
<linearGradient id="linear1" gradientUnits="userSpaceOnUse" x1="38.903" y1="9.936" x2="38.903" y2="52.195" gradientTransform="matrix(0.65625,0,0,0.65625,0,0)">
<stop offset="0" style="stop-color:rgb(10.196078%,42.745098%,100%);stop-opacity:1;"/>
<stop offset="1" style="stop-color:rgb(78.431373%,13.333333%,100%);stop-opacity:1;"/>
</linearGradient>
<linearGradient id="linear2" gradientUnits="userSpaceOnUse" x1="42" y1="17.979" x2="42" y2="21.528" gradientTransform="matrix(0.65625,0,0,0.65625,0,0)">
<stop offset="0" style="stop-color:rgb(42.745098%,78.039216%,100%);stop-opacity:1;"/>
<stop offset="1" style="stop-color:rgb(90.196078%,67.058824%,100%);stop-opacity:1;"/>
</linearGradient>
</defs>
<g id="surface1">
<path style=" stroke:none;fill-rule:nonzero;fill:url(#linear0);" d="M 37.796875 10.554688 C 37.609375 10.332031 37.296875 10.261719 37.027344 10.378906 C 36.625 10.554688 36.210938 10.714844 35.789062 10.851562 C 36.328125 10.171875 36.746094 9.394531 37.019531 8.558594 C 37.101562 8.300781 37.015625 8.015625 36.804688 7.847656 C 36.589844 7.675781 36.296875 7.652344 36.0625 7.792969 C 34.894531 8.476562 33.652344 8.964844 32.359375 9.25 C 31.003906 7.953125 29.167969 7.21875 27.269531 7.21875 C 23.222656 7.21875 19.925781 10.484375 19.925781 14.5 C 19.925781 14.765625 19.941406 15.03125 19.972656 15.296875 C 15.109375 14.835938 10.59375 12.449219 7.484375 8.667969 C 7.347656 8.503906 7.144531 8.414062 6.925781 8.429688 C 6.714844 8.445312 6.523438 8.566406 6.414062 8.75 C 5.761719 9.851562 5.417969 11.121094 5.417969 12.421875 C 5.417969 14.027344 5.945312 15.558594 6.890625 16.804688 C 6.699219 16.722656 6.511719 16.632812 6.328125 16.535156 C 6.121094 16.425781 5.875 16.429688 5.679688 16.546875 C 5.480469 16.667969 5.359375 16.878906 5.359375 17.113281 L 5.359375 17.191406 C 5.359375 19.625 6.585938 21.832031 8.5 23.164062 C 8.492188 23.164062 8.484375 23.160156 8.476562 23.160156 C 8.246094 23.117188 8.015625 23.199219 7.863281 23.375 C 7.714844 23.546875 7.664062 23.789062 7.734375 24.007812 C 8.511719 26.402344 10.457031 28.1875 12.832031 28.820312 C 10.863281 29.980469 8.632812 30.589844 6.300781 30.589844 C 5.785156 30.589844 5.273438 30.558594 4.785156 30.5 C 4.476562 30.460938 4.191406 30.644531 4.085938 30.929688 C 3.984375 31.21875 4.09375 31.542969 4.355469 31.707031 C 7.53125 33.71875 11.199219 34.78125 14.957031 34.78125 C 27.273438 34.78125 34.636719 24.859375 34.636719 15.265625 C 34.636719 15.089844 34.632812 14.910156 34.628906 14.734375 C 35.878906 13.800781 36.957031 12.664062 37.839844 11.34375 C 38.003906 11.101562 37.984375 10.78125 37.796875 10.554688 Z M 33.578125 13.875 C 33.394531 14.003906 33.289062 14.21875 33.300781 14.441406 C 33.316406 14.714844 33.324219 14.988281 33.324219 15.265625 C 33.324219 24.214844 26.453125 33.46875 14.957031 33.46875 C 12.34375 33.46875 9.777344 32.917969 7.410156 31.859375 C 10.183594 31.648438 12.789062 30.644531 15.003906 28.925781 C 15.226562 28.757812 15.3125 28.46875 15.226562 28.203125 C 15.136719 27.9375 14.894531 27.757812 14.617188 27.753906 C 12.398438 27.710938 10.414062 26.472656 9.398438 24.578125 C 10.132812 24.605469 10.847656 24.515625 11.550781 24.320312 C 11.84375 24.242188 12.042969 23.96875 12.03125 23.664062 C 12.019531 23.359375 11.800781 23.105469 11.503906 23.046875 C 9.027344 22.550781 7.152344 20.570312 6.75 18.15625 C 7.488281 18.421875 8.257812 18.570312 9.027344 18.59375 C 9.328125 18.601562 9.582031 18.417969 9.671875 18.136719 C 9.761719 17.859375 9.652344 17.554688 9.410156 17.390625 C 7.730469 16.277344 6.730469 14.417969 6.730469 12.421875 C 6.730469 11.675781 6.867188 10.945312 7.132812 10.265625 C 10.625 14.085938 15.523438 16.40625 20.726562 16.667969 C 20.941406 16.683594 21.132812 16.59375 21.261719 16.433594 C 21.394531 16.277344 21.445312 16.066406 21.398438 15.863281 C 21.292969 15.414062 21.242188 14.957031 21.242188 14.5 C 21.242188 11.210938 23.945312 8.53125 27.269531 8.53125 C 28.9375 8.53125 30.539062 9.21875 31.667969 10.414062 C 31.820312 10.578125 32.050781 10.652344 32.269531 10.609375 C 33.179688 10.433594 34.066406 10.167969 34.925781 9.816406 C 34.449219 10.476562 33.832031 11.039062 33.117188 11.464844 C 32.847656 11.625 32.730469 11.949219 32.828125 12.242188 C 32.929688 12.535156 33.222656 12.722656 33.53125 12.683594 C 34.15625 12.605469 34.769531 12.492188 35.367188 12.339844 C 34.820312 12.90625 34.222656 13.417969 33.578125 13.875 Z M 33.578125 13.875 "/>
<path style=" stroke:none;fill-rule:nonzero;fill:url(#linear1);" d="M 20.195312 30.046875 L 20.601562 31.292969 C 25.277344 29.765625 29.015625 26.101562 30.867188 21.234375 L 29.640625 20.765625 C 28.636719 23.410156 26.074219 28.125 20.195312 30.046875 Z M 20.195312 30.046875 "/>
<path style=" stroke:none;fill-rule:nonzero;fill:url(#linear2);" d="M 28.875 13.125 C 28.875 13.851562 28.289062 14.4375 27.5625 14.4375 C 26.835938 14.4375 26.25 13.851562 26.25 13.125 C 26.25 12.398438 26.835938 11.8125 27.5625 11.8125 C 28.289062 11.8125 28.875 12.398438 28.875 13.125 Z M 28.875 13.125 "/>
</g>
</svg>
