<?xml version="1.0" encoding="UTF-8"?>
<svg xmlns="http://www.w3.org/2000/svg" xmlns:xlink="http://www.w3.org/1999/xlink" width="42px" height="px" viewBox="0 0 42 42" version="1.1">
<defs>
<linearGradient id="linear0" gradientUnits="userSpaceOnUse" x1="32" y1="10" x2="32" y2="54.751" spreadMethod="reflect" gradientTransform="matrix(0.65625,0,0,0.65625,0,0)">
<stop offset="0" style="stop-color:rgb(10.196078%,42.745098%,100%);stop-opacity:1;"/>
<stop offset="1" style="stop-color:rgb(78.431373%,13.333333%,100%);stop-opacity:1;"/>
</linearGradient>
<linearGradient id="linear1" gradientUnits="userSpaceOnUse" x1="31.72" y1="24.25" x2="31.72" y2="39.252" spreadMethod="reflect" gradientTransform="matrix(0.65625,0,0,0.65625,0,0)">
<stop offset="0" style="stop-color:rgb(42.745098%,78.039216%,100%);stop-opacity:1;"/>
<stop offset="1" style="stop-color:rgb(90.196078%,67.058824%,100%);stop-opacity:1;"/>
</linearGradient>
<linearGradient id="linear2" gradientUnits="userSpaceOnUse" x1="32.212" y1="10" x2="32.212" y2="54.751" spreadMethod="reflect" gradientTransform="matrix(0.65625,0,0,0.65625,0,0)">
<stop offset="0" style="stop-color:rgb(10.196078%,42.745098%,100%);stop-opacity:1;"/>
<stop offset="1" style="stop-color:rgb(78.431373%,13.333333%,100%);stop-opacity:1;"/>
</linearGradient>
</defs>
<g id="surface1">
<path style=" stroke:none;fill-rule:nonzero;fill:url(#linear0);" d="M 21 34.78125 C 16.828125 34.78125 12.65625 34.652344 8.335938 34.398438 C 5.078125 34.207031 2.453125 31.613281 2.226562 28.371094 C 1.882812 23.480469 1.882812 18.519531 2.226562 13.628906 C 2.453125 10.386719 5.078125 7.792969 8.335938 7.601562 C 16.976562 7.089844 25.027344 7.089844 33.664062 7.601562 C 36.921875 7.792969 39.546875 10.382812 39.773438 13.628906 C 40.117188 18.519531 40.117188 23.480469 39.773438 28.367188 C 39.546875 31.613281 36.921875 34.207031 33.664062 34.398438 C 29.34375 34.652344 25.171875 34.78125 21 34.78125 Z M 33.589844 33.089844 L 33.625 33.742188 L 33.589844 33.089844 C 36.1875 32.933594 38.28125 30.867188 38.464844 28.277344 C 38.804688 23.449219 38.804688 18.550781 38.464844 13.722656 C 38.28125 11.132812 36.1875 9.066406 33.589844 8.910156 C 25 8.402344 17 8.402344 8.414062 8.910156 C 5.8125 9.066406 3.71875 11.132812 3.535156 13.722656 C 3.199219 18.550781 3.199219 23.449219 3.535156 28.277344 C 3.71875 30.867188 5.8125 32.933594 8.414062 33.089844 C 17 33.597656 25 33.597656 33.589844 33.089844 Z M 33.589844 33.089844 "/>
<path style=" stroke:none;fill-rule:nonzero;fill:url(#linear1);" d="M 16.40625 26.144531 L 16.40625 15.855469 L 25.226562 21 Z M 16.40625 26.144531 "/>
<path style=" stroke:none;fill-rule:nonzero;fill:url(#linear2);" d="M 15.75 27.289062 L 15.75 14.710938 L 26.527344 21 Z M 17.0625 16.996094 L 17.0625 25 L 23.925781 21 Z M 17.0625 16.996094 "/>
</g>
</svg>
